<?xml version="1.0" encoding="UTF-8"?>
<svg width="443px" height="74px" viewBox="0 0 443 74" version="1.1" xmlns="http://www.w3.org/2000/svg" xmlns:xlink="http://www.w3.org/1999/xlink">
    <title>Group</title>
    <g id="16" stroke="none" strokewidth="1" fill="none" fillRule="evenodd">
        <g id="Update-notification-Copy" transform="translate(-352.000000, -172.000000)" fill="#FFFFFF" fillRule="nonzero">
            <g id="Group" transform="translate(352.432051, 172.000000)">
                <g id="nudx">
                    <path d="M11.385,72.27 L11.385,43.263 C11.385,40.689 11.9625,38.4285 13.1175,36.4815 C14.2725,34.5345 15.8235,33.0165 17.7705,31.9275 C19.7175,30.8385 21.813,30.294 24.057,30.294 C26.367,30.294 28.4955,30.8385 30.4425,31.9275 C32.3895,33.0165 33.957,34.5345 35.145,36.4815 C36.333,38.4285 36.927,40.689 36.927,43.263 L36.927,43.263 L36.927,72.27 L48.213,72.27 L48.213,43.164 C48.213,38.808 47.223,34.9305 45.243,31.5315 C43.263,28.1325 40.4745,25.4595 36.8775,23.5125 C33.2805,21.5655 29.04,20.592 24.156,20.592 C19.272,20.592 15.015,21.5655 11.385,23.5125 C7.755,25.4595 4.95,28.1325 2.97,31.5315 C0.99,34.9305 0,38.808 0,43.164 L0,43.164 L0,72.27 L11.385,72.27 Z M86.031,73.458 C90.915,73.458 95.172,72.4845 98.802,70.5375 C102.432,68.5905 105.237,65.901 107.217,62.469 C109.197,59.037 110.187,55.176 110.187,50.886 L110.187,50.886 L110.187,21.78 L98.802,21.78 L98.802,50.787 C98.802,53.361 98.2245,55.6215 97.0695,57.5685 C95.9145,59.5155 94.3635,61.0335 92.4165,62.1225 C90.4695,63.2115 88.341,63.756 86.031,63.756 C83.721,63.756 81.5925,63.2115 79.6455,62.1225 C77.6985,61.0335 76.1475,59.5155 74.9925,57.5685 C73.8375,55.6215 73.26,53.361 73.26,50.787 L73.26,50.787 L73.26,21.78 L61.875,21.78 L61.875,50.886 C61.875,55.176 62.865,59.037 64.845,62.469 C66.825,65.901 69.63,68.5905 73.26,70.5375 C76.89,72.4845 81.147,73.458 86.031,73.458 Z M128.799,36.432 C130.251,36.432 131.571,36.0855 132.759,35.3925 C133.947,34.6995 134.8875,33.7425 135.5805,32.5215 C136.2735,31.3005 136.62,29.964 136.62,28.512 C136.62,26.4 135.8445,24.5685 134.2935,23.0175 C132.7425,21.4665 130.911,20.691 128.799,20.691 C126.621,20.691 124.7565,21.4665 123.2055,23.0175 C121.6545,24.5685 120.879,26.4 120.879,28.512 C120.879,30.69 121.6545,32.5545 123.2055,34.1055 C124.7565,35.6565 126.621,36.432 128.799,36.432 Z M128.799,73.359 C130.251,73.359 131.571,73.0125 132.759,72.3195 C133.947,71.6265 134.8875,70.6695 135.5805,69.4485 C136.2735,68.2275 136.62,66.891 136.62,65.439 C136.62,63.327 135.8445,61.4955 134.2935,59.9445 C132.7425,58.3935 130.911,57.618 128.799,57.618 C126.621,57.618 124.7565,58.3935 123.2055,59.9445 C121.6545,61.4955 120.879,63.327 120.879,65.439 C120.879,67.617 121.6545,69.4815 123.2055,71.0325 C124.7565,72.5835 126.621,73.359 128.799,73.359 Z M170.775,73.458 C175.989,73.458 180.5595,72.369 184.4865,70.191 C188.4135,68.013 191.4825,64.8945 193.6935,60.8355 C195.9045,56.7765 197.01,51.975 197.01,46.431 L197.01,46.431 L197.01,0 L185.625,0 L185.625,29.403 L185.526,29.403 C184.47,27.621 183.084,26.07 181.368,24.75 C179.652,23.43 177.738,22.407 175.626,21.681 C173.514,20.955 171.27,20.592 168.894,20.592 C164.142,20.592 159.918,21.6645 156.222,23.8095 C152.526,25.9545 149.6385,28.941 147.5595,32.769 C145.4805,36.597 144.441,41.085 144.441,46.233 C144.441,50.259 145.0515,53.9385 146.2725,57.2715 C147.4935,60.6045 149.2425,63.492 151.5195,65.934 C153.7965,68.376 156.5685,70.2405 159.8355,71.5275 C163.1025,72.8145 166.749,73.458 170.775,73.458 Z M170.775,63.756 C167.937,63.756 165.3795,63.0465 163.1025,61.6275 C160.8255,60.2085 159.06,58.245 157.806,55.737 C156.552,53.229 155.925,50.325 155.925,47.025 C155.925,43.791 156.552,40.92 157.806,38.412 C159.06,35.904 160.809,33.924 163.053,32.472 C165.297,31.02 167.838,30.294 170.676,30.294 C173.646,30.294 176.2365,31.0035 178.4475,32.4225 C180.6585,33.8415 182.391,35.805 183.645,38.313 C184.899,40.821 185.526,43.725 185.526,47.025 C185.526,50.325 184.899,53.229 183.645,55.737 C182.391,58.245 180.6585,60.2085 178.4475,61.6275 C176.2365,63.0465 173.679,63.756 170.775,63.756 Z M219.582,72.27 L234.036,51.678 C236.478,51.81 238.6725,52.47 240.6195,53.658 C242.5665,54.846 244.101,56.397 245.223,58.311 C246.345,60.225 246.906,62.337 246.906,64.647 L246.906,64.647 L246.906,72.27 L258.192,72.27 L258.192,64.647 C258.192,61.413 257.5815,58.3935 256.3605,55.5885 C255.1395,52.7835 253.374,50.325 251.064,48.213 C248.754,46.101 245.982,44.517 242.748,43.461 L242.748,43.461 L258.291,21.78 L245.718,21.78 L231.66,41.778 C229.68,41.382 227.8485,40.6065 226.1655,39.4515 C224.4825,38.2965 223.146,36.8445 222.156,35.0955 C221.166,33.3465 220.671,31.416 220.671,29.304 L220.671,29.304 L220.671,21.78 L209.286,21.78 L209.286,29.304 C209.286,32.34 209.8635,35.178 211.0185,37.818 C212.1735,40.458 213.7905,42.7845 215.8695,44.7975 C217.9485,46.8105 220.407,48.411 223.245,49.599 L223.245,49.599 L207.009,72.27 L219.582,72.27 Z" id="nu:dx"></path>
                </g>
                <path d="M313.75351,73.958 L313.75351,55.5594286 L330.410652,55.5594286 C333.89351,55.5594286 336.985176,54.8275238 339.685652,53.3637143 C342.386129,51.8999048 344.506129,49.855619 346.045652,47.2308571 C347.585176,44.6060952 348.354938,41.628 348.354938,38.2965714 C348.354938,34.8641905 347.559938,31.8482381 345.969938,29.2487143 C344.379938,26.6491905 342.247319,24.6175238 339.572081,23.1537143 C336.896843,21.6899048 333.943986,20.958 330.71351,20.958 L330.71351,20.958 L308.302081,20.958 L308.302081,73.958 L313.75351,73.958 Z M329.804938,50.7137143 L313.75351,50.7137143 L313.75351,25.8037143 L330.032081,25.8037143 C332.353986,25.8037143 334.486605,26.3084762 336.429938,27.318 C338.373271,28.3275238 339.938033,29.7534762 341.124224,31.5958571 C342.310414,33.4382381 342.90351,35.6718095 342.90351,38.2965714 C342.90351,40.9213333 342.310414,43.1549048 341.124224,44.9972857 C339.938033,46.8396667 338.360652,48.253 336.392081,49.2372857 C334.42351,50.2215714 332.227795,50.7137143 329.804938,50.7137143 L329.804938,50.7137143 Z M388.610214,73.958 L388.610214,69.0365714 L382.7045,69.0365714 C379.625452,69.0365714 376.760929,68.4939524 374.110929,67.4087143 C371.460929,66.3234762 369.151643,64.8091905 367.183071,62.8658571 C365.2145,60.9225238 363.687595,58.6384762 362.602357,56.0137143 C361.517119,53.3889524 360.9745,50.5118095 360.9745,47.3822857 C360.9745,44.3537143 361.517119,41.5270476 362.602357,38.9022857 C363.687595,36.2775238 365.2145,33.9934762 367.183071,32.0501429 C369.151643,30.1068095 371.460929,28.5799048 374.110929,27.4694286 C376.760929,26.3589524 379.625452,25.8037143 382.7045,25.8037143 L382.7045,25.8037143 L388.610214,25.8037143 L388.610214,20.958 L382.477357,20.958 C378.439262,20.958 374.767119,21.6520476 371.460929,23.0401429 C368.154738,24.4282381 365.302833,26.3337143 362.905214,28.7565714 C360.507595,31.1794286 358.652595,33.9808571 357.340214,37.1608571 C356.027833,40.3408571 355.371643,43.748 355.371643,47.3822857 C355.371643,51.0165714 356.027833,54.4363333 357.340214,57.6415714 C358.652595,60.8468095 360.507595,63.6734762 362.905214,66.1215714 C365.302833,68.5696667 368.154738,70.4877619 371.460929,71.8758571 C374.767119,73.2639524 378.439262,73.958 382.477357,73.958 L382.477357,73.958 L388.610214,73.958 Z M403.879776,73.958 L403.879776,54.5751429 L419.628348,54.5751429 C420.234062,54.5751429 420.852395,54.5499048 421.483348,54.4994286 C422.1143,54.4489524 422.732633,54.3984762 423.338348,54.348 L423.338348,54.348 L429.849776,68.4308571 C430.758348,70.1975238 431.894062,71.560381 433.256919,72.5194286 C434.619776,73.4784762 436.260252,73.958 438.178348,73.958 L438.178348,73.958 L442.115491,73.958 L442.115491,69.0365714 L438.935491,69.0365714 C437.875491,69.0365714 437.042633,68.7968095 436.436919,68.3172857 C435.831205,67.8377619 435.275967,67.068 434.771205,66.008 L434.771205,66.008 L428.789776,53.0608571 C431.9193,51.7989524 434.417872,49.830381 436.285491,47.1551429 C438.15311,44.4799048 439.086919,41.350381 439.086919,37.7665714 C439.086919,34.4351429 438.291919,31.5075238 436.701919,28.9837143 C435.111919,26.4599048 432.9793,24.4913333 430.304062,23.078 C427.628824,21.6646667 424.675967,20.958 421.445491,20.958 L421.445491,20.958 L398.428348,20.958 L398.428348,73.958 L403.879776,73.958 Z M420.536919,49.7294286 L403.879776,49.7294286 L403.879776,25.8037143 L420.764062,25.8037143 C423.085967,25.8037143 425.218586,26.270619 427.161919,27.2044286 C429.105252,28.1382381 430.670014,29.5137143 431.856205,31.3308571 C433.042395,33.148 433.635491,35.2932381 433.635491,37.7665714 C433.635491,40.290381 433.042395,42.4482381 431.856205,44.2401429 C430.670014,46.0320476 429.092633,47.3949048 427.124062,48.3287143 C425.155491,49.2625238 422.959776,49.7294286 420.536919,49.7294286 L420.536919,49.7294286 Z" id="PCR"></path>
            </g>
        </g>
    </g>
</svg>